<svg  class="_3C1w798INaJPgFxfklr4an _3UAl61hrkRAXX5JQ6m_q8R" viewBox="0 0 20 20" xmlns="http://www.w3.org/2000/svg" style="padding: 0px;"><path d="M11.86,12a1.36,1.36,0,0,1,.7,1.19c0,1.07-1,1.59-2.42,1.59a4.12,4.12,0,0,1-3.75-2.36L4.08,13.79A6.21,6.21,0,0,0,10,17.2c3.86,0,5.55-2,5.55-4.22a4,4,0,0,0-.12-1Z"></path><path d="M17,9H11.61l-1.09-.31c-1.82-.51-2.85-.9-2.85-2,0-.82.71-1.39,2-1.39a4.13,4.13,0,0,1,3.41,2L15.2,5.65A6.23,6.23,0,0,0,9.69,2.8c-3,0-5,1.56-5,4.14A3.31,3.31,0,0,0,5.31,9H3a1,1,0,0,0,0,2H17a1,1,0,0,0,0-2Z"></path></svg>