<svg  class="LfxAZX1Sm9aiJZiizUSZO _3UAl61hrkRAXX5JQ6m_q8R" viewBox="0 0 20 20" xmlns="http://www.w3.org/2000/svg" style="padding: 0px;"><path d="M17,9H8a1,1,0,0,0,0,2h9a1,1,0,0,0,0-2Z"></path><path d="M17,15H8a1,1,0,0,0,0,2h9a1,1,0,0,0,0-2Z"></path><path d="M8,5h9a1,1,0,0,0,0-2H8A1,1,0,0,0,8,5Z"></path><path d="M4.88,9.43a1.29,1.29,0,0,0-.13-.26,2.17,2.17,0,0,0-.19-.23,1.55,1.55,0,0,0-2.12,0,2.16,2.16,0,0,0-.19.23,2.2,2.2,0,0,0-.14.26A2.3,2.3,0,0,0,2,9.71,1.32,1.32,0,0,0,2,10a1.5,1.5,0,0,0,1.5,1.5,1.55,1.55,0,0,0,.57-.11A1.52,1.52,0,0,0,5,10a1.32,1.32,0,0,0,0-.29A1.27,1.27,0,0,0,4.88,9.43Z"></path><path d="M4.33,14.75l-.26-.14-.28-.08a1.42,1.42,0,0,0-.58,0l-.28.08-.26.14a2.16,2.16,0,0,0-.23.19A1.52,1.52,0,0,0,2,16a1.47,1.47,0,0,0,.44,1.06,1.52,1.52,0,0,0,.49.33,1.53,1.53,0,0,0,1.14,0,1.61,1.61,0,0,0,.49-.33A1.52,1.52,0,0,0,5,16a1.5,1.5,0,0,0-.44-1.06A2.06,2.06,0,0,0,4.33,14.75Z"></path><path d="M2.44,2.94A1.52,1.52,0,0,0,2,4a1.47,1.47,0,0,0,.44,1.06,1.59,1.59,0,0,0,.48.33,1.65,1.65,0,0,0,.58.11,1.55,1.55,0,0,0,.57-.11,1.5,1.5,0,0,0,.49-.33,1.5,1.5,0,0,0,0-2.12A1.55,1.55,0,0,0,2.44,2.94Z"></path></svg>